<mxfile host="app.diagrams.net" modified="2022-06-21T02:25:43.686Z" agent="5.0 (Windows NT 10.0; Win64; x64) AppleWebKit/537.36 (KHTML, like Gecko) Chrome/102.0.0.0 Safari/537.36" etag="bFQ0gSK0PuO3OHFGqMAk" version="20.0.1" type="github">
  <diagram id="TUnOw4-OjzSRCAbL5mTf" name="Page-1">
    <mxGraphModel dx="1422" dy="839" grid="1" gridSize="10" guides="1" tooltips="1" connect="1" arrows="1" fold="1" page="1" pageScale="1" pageWidth="2339" pageHeight="3300" math="0" shadow="0">
      <root>
        <mxCell id="0" />
        <mxCell id="1" parent="0" />
        <mxCell id="n0v-IEttftfymTyLD5pH-8" value="" style="edgeStyle=orthogonalEdgeStyle;rounded=0;orthogonalLoop=1;jettySize=auto;html=1;fontSize=18;" edge="1" parent="1" source="n0v-IEttftfymTyLD5pH-2" target="n0v-IEttftfymTyLD5pH-5">
          <mxGeometry relative="1" as="geometry" />
        </mxCell>
        <mxCell id="n0v-IEttftfymTyLD5pH-2" value="提交分页参数&lt;br&gt;size no area" style="rounded=1;whiteSpace=wrap;html=1;fontSize=18;fillColor=#f9f7ed;strokeColor=#36393d;" vertex="1" parent="1">
          <mxGeometry x="540" y="260" width="120" height="60" as="geometry" />
        </mxCell>
        <mxCell id="n0v-IEttftfymTyLD5pH-4" value="" style="edgeStyle=orthogonalEdgeStyle;rounded=0;orthogonalLoop=1;jettySize=auto;html=1;fontSize=18;" edge="1" parent="1" source="n0v-IEttftfymTyLD5pH-3" target="n0v-IEttftfymTyLD5pH-2">
          <mxGeometry relative="1" as="geometry" />
        </mxCell>
        <mxCell id="n0v-IEttftfymTyLD5pH-3" value="开始" style="rounded=1;whiteSpace=wrap;html=1;fontSize=18;fillColor=#f9f7ed;strokeColor=#36393d;" vertex="1" parent="1">
          <mxGeometry x="540" y="160" width="120" height="60" as="geometry" />
        </mxCell>
        <mxCell id="n0v-IEttftfymTyLD5pH-9" value="" style="edgeStyle=orthogonalEdgeStyle;rounded=0;orthogonalLoop=1;jettySize=auto;html=1;fontSize=18;" edge="1" parent="1" source="n0v-IEttftfymTyLD5pH-5" target="n0v-IEttftfymTyLD5pH-6">
          <mxGeometry relative="1" as="geometry" />
        </mxCell>
        <mxCell id="n0v-IEttftfymTyLD5pH-5" value="从redis中&lt;br&gt;查询缓存" style="rounded=1;whiteSpace=wrap;html=1;fontSize=18;fillColor=#fff2cc;strokeColor=#d6b656;" vertex="1" parent="1">
          <mxGeometry x="540" y="360" width="120" height="60" as="geometry" />
        </mxCell>
        <mxCell id="n0v-IEttftfymTyLD5pH-11" value="" style="edgeStyle=orthogonalEdgeStyle;rounded=0;orthogonalLoop=1;jettySize=auto;html=1;fontSize=18;" edge="1" parent="1" source="n0v-IEttftfymTyLD5pH-6" target="n0v-IEttftfymTyLD5pH-10">
          <mxGeometry relative="1" as="geometry" />
        </mxCell>
        <mxCell id="n0v-IEttftfymTyLD5pH-12" value="Y" style="edgeLabel;html=1;align=center;verticalAlign=middle;resizable=0;points=[];fontSize=18;" vertex="1" connectable="0" parent="n0v-IEttftfymTyLD5pH-11">
          <mxGeometry x="-0.2444" y="-1" relative="1" as="geometry">
            <mxPoint x="-19" y="-24" as="offset" />
          </mxGeometry>
        </mxCell>
        <mxCell id="n0v-IEttftfymTyLD5pH-14" value="" style="edgeStyle=orthogonalEdgeStyle;rounded=0;orthogonalLoop=1;jettySize=auto;html=1;fontSize=18;" edge="1" parent="1" source="n0v-IEttftfymTyLD5pH-6" target="n0v-IEttftfymTyLD5pH-13">
          <mxGeometry relative="1" as="geometry" />
        </mxCell>
        <mxCell id="n0v-IEttftfymTyLD5pH-6" value="判断缓存&lt;br&gt;是否命中" style="rhombus;whiteSpace=wrap;html=1;fontSize=18;fillColor=#f9f7ed;strokeColor=#36393d;" vertex="1" parent="1">
          <mxGeometry x="535" y="460" width="130" height="80" as="geometry" />
        </mxCell>
        <mxCell id="n0v-IEttftfymTyLD5pH-19" value="" style="edgeStyle=orthogonalEdgeStyle;rounded=0;orthogonalLoop=1;jettySize=auto;html=1;fontSize=18;" edge="1" parent="1" source="n0v-IEttftfymTyLD5pH-10" target="n0v-IEttftfymTyLD5pH-18">
          <mxGeometry relative="1" as="geometry" />
        </mxCell>
        <mxCell id="n0v-IEttftfymTyLD5pH-10" value="返回视频信息" style="rounded=1;whiteSpace=wrap;html=1;fontSize=18;fillColor=#f9f7ed;strokeColor=#36393d;" vertex="1" parent="1">
          <mxGeometry x="540" y="670" width="120" height="60" as="geometry" />
        </mxCell>
        <mxCell id="n0v-IEttftfymTyLD5pH-17" value="" style="edgeStyle=orthogonalEdgeStyle;rounded=0;orthogonalLoop=1;jettySize=auto;html=1;fontSize=18;" edge="1" parent="1" source="n0v-IEttftfymTyLD5pH-13" target="n0v-IEttftfymTyLD5pH-16">
          <mxGeometry relative="1" as="geometry" />
        </mxCell>
        <mxCell id="n0v-IEttftfymTyLD5pH-13" value="根据分页参数查询数据库" style="rounded=1;whiteSpace=wrap;html=1;fontSize=18;fillColor=#f9f7ed;strokeColor=#36393d;" vertex="1" parent="1">
          <mxGeometry x="870" y="470" width="120" height="60" as="geometry" />
        </mxCell>
        <mxCell id="n0v-IEttftfymTyLD5pH-15" value="N" style="edgeLabel;html=1;align=center;verticalAlign=middle;resizable=0;points=[];fontSize=18;" vertex="1" connectable="0" parent="1">
          <mxGeometry x="690" y="490" as="geometry">
            <mxPoint x="-4" y="-3" as="offset" />
          </mxGeometry>
        </mxCell>
        <mxCell id="n0v-IEttftfymTyLD5pH-20" style="edgeStyle=orthogonalEdgeStyle;rounded=0;orthogonalLoop=1;jettySize=auto;html=1;fontSize=18;" edge="1" parent="1" source="n0v-IEttftfymTyLD5pH-16">
          <mxGeometry relative="1" as="geometry">
            <mxPoint x="1080" y="720" as="targetPoint" />
          </mxGeometry>
        </mxCell>
        <mxCell id="n0v-IEttftfymTyLD5pH-24" style="edgeStyle=orthogonalEdgeStyle;rounded=0;orthogonalLoop=1;jettySize=auto;html=1;entryX=0.5;entryY=0;entryDx=0;entryDy=0;fontSize=18;" edge="1" parent="1" source="n0v-IEttftfymTyLD5pH-16" target="n0v-IEttftfymTyLD5pH-23">
          <mxGeometry relative="1" as="geometry" />
        </mxCell>
        <mxCell id="n0v-IEttftfymTyLD5pH-16" value="判断查询&lt;br&gt;信息是否存在" style="rhombus;whiteSpace=wrap;html=1;fontSize=18;fillColor=#f9f7ed;strokeColor=#36393d;" vertex="1" parent="1">
          <mxGeometry x="852.5" y="570" width="155" height="80" as="geometry" />
        </mxCell>
        <mxCell id="n0v-IEttftfymTyLD5pH-18" value="结束" style="rounded=1;whiteSpace=wrap;html=1;fontSize=18;fillColor=#f9f7ed;strokeColor=#36393d;" vertex="1" parent="1">
          <mxGeometry x="540" y="800" width="120" height="60" as="geometry" />
        </mxCell>
        <mxCell id="n0v-IEttftfymTyLD5pH-22" style="edgeStyle=orthogonalEdgeStyle;rounded=0;orthogonalLoop=1;jettySize=auto;html=1;entryX=1;entryY=0.5;entryDx=0;entryDy=0;fontSize=18;" edge="1" parent="1" source="n0v-IEttftfymTyLD5pH-21" target="n0v-IEttftfymTyLD5pH-18">
          <mxGeometry relative="1" as="geometry">
            <Array as="points">
              <mxPoint x="1080" y="830" />
            </Array>
          </mxGeometry>
        </mxCell>
        <mxCell id="n0v-IEttftfymTyLD5pH-21" value="返回404" style="rounded=1;whiteSpace=wrap;html=1;fontSize=18;fillColor=#f9f7ed;strokeColor=#36393d;" vertex="1" parent="1">
          <mxGeometry x="1020" y="690" width="120" height="60" as="geometry" />
        </mxCell>
        <mxCell id="n0v-IEttftfymTyLD5pH-25" value="" style="edgeStyle=orthogonalEdgeStyle;rounded=0;orthogonalLoop=1;jettySize=auto;html=1;fontSize=18;" edge="1" parent="1" source="n0v-IEttftfymTyLD5pH-23" target="n0v-IEttftfymTyLD5pH-10">
          <mxGeometry relative="1" as="geometry" />
        </mxCell>
        <mxCell id="n0v-IEttftfymTyLD5pH-23" value="将视频数据&lt;br&gt;写入redis" style="rounded=1;whiteSpace=wrap;html=1;fontSize=18;fillColor=#fff2cc;strokeColor=#d6b656;" vertex="1" parent="1">
          <mxGeometry x="710" y="670" width="120" height="60" as="geometry" />
        </mxCell>
      </root>
    </mxGraphModel>
  </diagram>
</mxfile>
